<?xml version="1.0" standalone="no"?>
<!DOCTYPE svg PUBLIC "-//W3C//DTD SVG 20010904//EN"
 "http://www.w3.org/TR/2001/REC-SVG-20010904/DTD/svg10.dtd">
<svg version="1.0" xmlns="http://www.w3.org/2000/svg"
 width="375.000000pt" height="375.000000pt" viewBox="0 0 375.000000 375.000000"
 preserveAspectRatio="xMidYMid meet">
<metadata>
Created by potrace 1.11, written by Peter Selinger 2001-2013
</metadata>
<g transform="translate(0.000000,375.000000) scale(0.100000,-0.100000)"
fill="#000000" stroke="none">
<path d="M1729 3746 c-2 -2 -33 -6 -69 -10 -105 -10 -277 -46 -360 -75 -28
-10 -51 -18 -62 -20 -9 -2 -107 -45 -168 -73 -443 -206 -800 -605 -964 -1077
-79 -227 -102 -370 -100 -636 1 -166 6 -210 40 -400 3 -16 25 -88 49 -160 70
-213 153 -373 287 -551 64 -86 202 -235 276 -297 50 -43 203 -152 242 -173 19
-10 37 -22 40 -25 9 -11 214 -106 285 -132 126 -46 226 -72 405 -102 61 -11
392 -14 450 -4 30 5 71 11 90 13 19 3 46 8 60 10 14 3 39 8 55 12 27 5 151 39
183 49 7 3 14 5 17 5 17 3 211 88 265 117 410 217 732 588 888 1023 82 229
111 411 107 670 -2 102 -6 196 -9 210 -3 13 -8 42 -12 65 -43 289 -204 643
-404 885 -127 154 -355 348 -495 422 -16 9 -60 32 -96 51 -158 84 -352 147
-554 182 -87 15 -434 31 -446 21z m-1049 -1610 c0 -2 -8 -10 -17 -17 -16 -13
-17 -12 -4 4 13 16 21 21 21 13z"/>
</g>
</svg>
